<svg width="96" height="96" viewBox="0 0 96 96" fill="none" xmlns="http://www.w3.org/2000/svg">
<path d="M8.72611 9.00023C7.93103 8.98964 7.1721 9.34265 6.65292 9.96457C6.13374 10.5865 5.90744 11.4136 6.03473 12.2242L17.4596 83.8453C17.7534 85.6545 19.2628 86.9846 21.0391 86.9998H75.849C77.1823 87.0175 78.3271 86.0244 78.5404 84.6652L89.9653 12.2381C90.0926 11.4275 89.8662 10.6004 89.3471 9.97846C88.8279 9.35655 88.069 9.00354 87.2739 9.01413L8.72611 9.00023ZM56.8344 60.7637H39.3405L34.6037 35.2085H61.0733L56.8344 60.7637Z" fill="#2684FF"/>
<path fill-rule="evenodd" clip-rule="evenodd" d="M86.3322 35.209H61.0736L56.8347 60.7641H39.3408L18.6844 86.0831C19.3392 86.6677 20.1739 86.9928 21.0394 87.0002H75.8627C77.196 87.0179 78.3409 86.0249 78.5541 84.6657L86.3322 35.209Z" fill="url(#paint0_linear_24_8273)"/>
<defs>
<linearGradient id="paint0_linear_24_8273" x1="92.1725" y1="42.3655" x2="61.7281" y2="84.2258" gradientUnits="userSpaceOnUse">
<stop offset="0.18" stop-color="#0052CC"/>
<stop offset="1" stop-color="#2684FF"/>
</linearGradient>
</defs>
</svg>
