<svg width="83" height="40" viewBox="0 0 83 40" fill="none" xmlns="http://www.w3.org/2000/svg">
<g clip-path="url(#clip0_60_122830)">
<path fill-rule="evenodd" clip-rule="evenodd" d="M67.0887 17.1644C67.4006 17.7025 67.5026 18.3146 67.5363 19.0028L67.5806 19.92V26.334L67.6258 27.2522C67.7163 28.7517 68.8222 29.8605 70.3333 29.9548L71.2467 30.0001V19.92L71.2919 19.0028C71.3294 18.3223 71.4305 17.6986 71.7471 17.1567C72.0698 16.6009 72.533 16.1398 73.0903 15.8196C73.6475 15.4995 74.2792 15.3316 74.9218 15.3327C75.5645 15.3339 76.1956 15.5041 76.7516 15.8263C77.3077 16.1485 77.7693 16.6113 78.0899 17.1683C78.4017 17.7063 78.4989 18.33 78.5365 19.0028L78.5817 19.9171V26.334L78.627 27.2522C78.7213 28.7594 79.8185 29.8682 81.3344 29.9548L82.2478 30.0001V19.0028C82.2478 17.0582 81.4755 15.1931 80.1007 13.8178C78.7259 12.4425 76.8612 11.6694 74.9166 11.6687C73.8758 11.6676 72.8467 11.8886 71.8981 12.317C70.9496 12.7454 70.1034 13.3713 69.416 14.1528C68.7284 13.3716 67.8821 12.7458 66.9336 12.3173C65.9851 11.8888 64.9562 11.6674 63.9154 11.6677C62.3928 11.6677 60.9799 12.1297 59.8095 12.9276C59.0953 12.1307 57.4976 11.6677 56.5804 11.6677V30.0001L57.4976 29.9548C59.0318 29.8538 60.1406 28.7748 60.2003 27.2522L60.2493 26.334V19.92L60.2946 19.0028C60.3331 18.3108 60.4293 17.7025 60.7421 17.1606C61.0651 16.6051 61.5281 16.1441 62.0849 15.8236C62.6417 15.503 63.2729 15.3341 63.9154 15.3338C64.5584 15.3339 65.1901 15.5031 65.7471 15.8245C66.304 16.1458 66.7667 16.6079 67.0887 17.1644V17.1644ZM4.3321 29.9558L5.24935 30.0001H18.9984L18.9531 29.0857C18.829 27.5785 17.7616 26.4774 16.2495 26.3792L15.3323 26.334H7.08384L18.0811 15.3328L18.0359 14.4194C17.9647 12.8968 16.8521 11.7967 15.3323 11.7129L14.4151 11.6716L0.666016 11.6677L0.711252 12.585C0.831562 14.0778 1.91435 15.2019 3.4139 15.2886L4.3321 15.3338H12.5806L1.58326 26.335L1.6285 27.2522C1.71897 28.7633 2.80946 29.8576 4.3321 29.9548V29.9558ZM52.9817 14.3511C53.833 15.2022 54.5083 16.2128 54.969 17.3249C55.4298 18.4371 55.6669 19.6291 55.6669 20.8329C55.6669 22.0368 55.4298 23.2288 54.969 24.341C54.5083 25.4531 53.833 26.4636 52.9817 27.3148C51.2617 29.0333 48.9298 29.9987 46.4984 29.9987C44.067 29.9987 41.7351 29.0333 40.0151 27.3148C36.4357 23.7353 36.4357 17.9306 40.0151 14.3511C40.8657 13.5003 41.8755 12.8253 42.9869 12.3647C44.0983 11.9041 45.2895 11.6669 46.4926 11.6668C47.6976 11.6659 48.891 11.9027 50.0045 12.3634C51.1179 12.8242 52.1296 13.5 52.9817 14.3521V14.3511ZM50.3878 16.9469C51.4188 17.9787 51.9979 19.3777 51.9979 20.8363C51.9979 22.2949 51.4188 23.6939 50.3878 24.7257C49.356 25.7567 47.957 26.3359 46.4984 26.3359C45.0398 26.3359 43.6408 25.7567 42.609 24.7257C41.578 23.6939 40.9988 22.2949 40.9988 20.8363C40.9988 19.3777 41.578 17.9787 42.609 16.9469C43.6408 15.9159 45.0398 15.3367 46.4984 15.3367C47.957 15.3367 49.356 15.9159 50.3878 16.9469V16.9469ZM27.2545 11.6668C28.4577 11.6671 29.649 11.9044 30.7604 12.3651C31.8718 12.8259 32.8816 13.501 33.732 14.3521C37.3125 17.9306 37.3125 23.7363 33.732 27.3148C32.0121 29.0333 29.6802 29.9987 27.2488 29.9987C24.8174 29.9987 22.4855 29.0333 20.7655 27.3148C17.186 23.7353 17.186 17.9306 20.7655 14.3511C21.616 13.5003 22.6259 12.8253 23.7373 12.3647C24.8487 11.9041 26.0399 11.6669 27.243 11.6668H27.2545ZM31.1382 16.945C32.1695 17.9768 32.7488 19.376 32.7488 20.8349C32.7488 22.2937 32.1695 23.6929 31.1382 24.7247C30.1064 25.7557 28.7074 26.3349 27.2488 26.3349C25.7901 26.3349 24.3912 25.7557 23.3594 24.7247C22.3284 23.6929 21.7492 22.294 21.7492 20.8353C21.7492 19.3767 22.3284 17.9778 23.3594 16.946C24.3912 15.9149 25.7901 15.3358 27.2488 15.3358C28.7074 15.3358 30.1064 15.9149 31.1382 16.946V16.945Z" fill="#2D8CFF"/>
</g>
<defs>
<clipPath id="clip0_60_122830">
<rect width="81.6667" height="40" fill="white" transform="translate(0.666016)"/>
</clipPath>
</defs>
</svg>
