<svg width="96" height="96" viewBox="0 0 96 96" fill="none" xmlns="http://www.w3.org/2000/svg">
<path fill-rule="evenodd" clip-rule="evenodd" d="M14.6109 66.9648C13.8663 68.2285 13.03 69.695 12.3197 70.8635C11.6839 71.9815 12.0252 73.4235 13.0873 74.1064L27.9803 83.6445C28.5031 83.9804 29.1336 84.0837 29.7303 83.9313C30.3269 83.7789 30.8398 83.3834 31.1537 82.8338C31.7494 81.7965 32.517 80.4492 33.3533 79.0066C39.2532 68.8724 45.1875 70.1123 55.8876 75.4298L70.6546 82.7384C71.2139 83.0154 71.8571 83.045 72.4377 82.8204C73.0183 82.5958 73.4868 82.1361 73.7363 81.5461L80.8277 64.8544C81.3287 63.6623 80.8189 62.2723 79.6821 61.7307C76.566 60.2046 70.3682 57.1644 64.7891 54.3625C44.7178 44.2164 27.6595 44.8721 14.6109 66.9648Z" fill="url(#paint0_linear_24_8267)"/>
<path fill-rule="evenodd" clip-rule="evenodd" d="M81.3891 29.0865C82.1338 27.8227 82.9701 26.3562 83.6803 25.1878C84.3161 24.0697 83.9748 22.6277 82.9128 21.9449L68.0197 12.4068C67.4927 12.0373 66.8419 11.9123 66.2228 12.0615C65.6038 12.2107 65.0721 12.6207 64.7547 13.1937C64.159 14.2309 63.3914 15.5782 62.5551 17.0208C56.6552 27.1551 50.7209 25.9151 40.0208 20.5976L25.2996 13.3248C24.7403 13.0478 24.0971 13.0182 23.5165 13.2428C22.9359 13.4674 22.4675 13.9271 22.2179 14.5171L15.1265 31.2087C14.6255 32.4009 15.1353 33.7909 16.2721 34.3325C19.3882 35.8586 25.586 38.8988 31.1652 41.7007C51.2822 51.8349 68.3405 51.1553 81.3891 29.0865Z" fill="url(#paint1_linear_24_8267)"/>
<defs>
<linearGradient id="paint0_linear_24_8267" x1="80.4268" y1="88.5685" x2="62.5997" y2="49.2707" gradientUnits="userSpaceOnUse">
<stop offset="0.18" stop-color="#0052CC"/>
<stop offset="1" stop-color="#2684FF"/>
</linearGradient>
<linearGradient id="paint1_linear_24_8267" x1="15.5733" y1="7.47082" x2="33.4283" y2="46.7867" gradientUnits="userSpaceOnUse">
<stop offset="0.18" stop-color="#0052CC"/>
<stop offset="1" stop-color="#2684FF"/>
</linearGradient>
</defs>
</svg>
