<svg width="96" height="96" viewBox="0 0 96 96" fill="none" xmlns="http://www.w3.org/2000/svg">
<path d="M6 34.8C6 24.7191 6 19.6786 7.96188 15.8282C9.6876 12.4413 12.4413 9.6876 15.8282 7.96188C19.6786 6 24.7191 6 34.8 6H61.2C71.2809 6 76.3214 6 80.1718 7.96188C83.5587 9.6876 86.3124 12.4413 88.0381 15.8282C90 19.6786 90 24.7191 90 34.8V61.2C90 71.2809 90 76.3214 88.0381 80.1718C86.3124 83.5587 83.5587 86.3124 80.1718 88.0381C76.3214 90 71.2809 90 61.2 90H34.8C24.7191 90 19.6786 90 15.8282 88.0381C12.4413 86.3124 9.6876 83.5587 7.96188 80.1718C6 76.3214 6 71.2809 6 61.2V34.8Z" fill="url(#paint0_linear_24_8272)"/>
<path d="M72.8257 30.08C68.2844 26.24 62.8349 24.32 57.0826 24L56.1743 24.96C61.3211 26.24 65.8624 28.8 70.1009 32.32C64.9541 29.44 59.2018 27.52 53.1468 26.88C51.3303 26.56 49.8165 26.56 48 26.56C46.1835 26.56 44.6697 26.56 42.8532 26.88C36.7982 27.52 31.0459 29.44 25.8991 32.32C30.1376 28.8 34.6789 26.24 39.8257 24.96L38.9174 24C33.1651 24.32 27.7156 26.24 23.1743 30.08C18.0275 40.32 15.3028 51.84 15 63.68C19.5413 68.8 25.8991 72 32.5596 72C32.5596 72 34.6789 69.44 36.1927 67.2C32.2569 66.24 28.6239 64 26.2018 60.48C28.3211 61.76 30.4404 63.04 32.5596 64C35.2844 65.28 38.0092 65.92 40.7339 66.56C43.156 66.88 45.578 67.2 48 67.2C50.422 67.2 52.844 66.88 55.2661 66.56C57.9908 65.92 60.7156 65.28 63.4404 64C65.5596 63.04 67.6789 61.76 69.7982 60.48C67.3761 64 63.7431 66.24 59.8073 67.2C61.3211 69.44 63.4404 72 63.4404 72C70.1009 72 76.4587 68.8 81 63.68C80.6972 51.84 77.9725 40.32 72.8257 30.08ZM38.0092 57.92C34.9817 57.92 32.2569 55.04 32.2569 51.52C32.2569 48 34.9817 45.12 38.0092 45.12C41.0367 45.12 43.7615 48 43.7615 51.52C43.7615 55.04 41.0367 57.92 38.0092 57.92ZM57.9908 57.92C54.9633 57.92 52.2385 55.04 52.2385 51.52C52.2385 48 54.9633 45.12 57.9908 45.12C61.0183 45.12 63.7431 48 63.7431 51.52C63.7431 55.04 61.0183 57.92 57.9908 57.92Z" fill="white"/>
<defs>
<linearGradient id="paint0_linear_24_8272" x1="48" y1="6" x2="48" y2="90" gradientUnits="userSpaceOnUse">
<stop stop-color="#687EC9"/>
<stop offset="1" stop-color="#5971C3"/>
</linearGradient>
</defs>
</svg>
