<svg width="96" height="96" viewBox="0 0 96 96" fill="none" xmlns="http://www.w3.org/2000/svg">
<path fill-rule="evenodd" clip-rule="evenodd" d="M48 48C48 40.5442 54.0442 34.5 61.5 34.5C68.9558 34.5 75 40.5442 75 48C75 55.4558 68.9558 61.5 61.5 61.5C54.0442 61.5 48 55.4558 48 48Z" fill="#1ABCFE"/>
<path fill-rule="evenodd" clip-rule="evenodd" d="M21 75C21 67.5442 27.0442 61.5 34.5 61.5H48V75C48 82.4558 41.9558 88.5 34.5 88.5C27.0442 88.5 21 82.4558 21 75Z" fill="#0ACF83"/>
<path fill-rule="evenodd" clip-rule="evenodd" d="M48 7.5V34.5H61.5C68.9558 34.5 75 28.4558 75 21C75 13.5442 68.9558 7.5 61.5 7.5H48Z" fill="#FF7262"/>
<path fill-rule="evenodd" clip-rule="evenodd" d="M21 21C21 28.4558 27.0442 34.5 34.5 34.5H48V7.5H34.5C27.0442 7.5 21 13.5442 21 21Z" fill="#F24E1E"/>
<path fill-rule="evenodd" clip-rule="evenodd" d="M21 48C21 55.4558 27.0442 61.5 34.5 61.5H48V34.5H34.5C27.0442 34.5 21 40.5442 21 48Z" fill="#A259FF"/>
</svg>
