<svg width="96" height="96" viewBox="0 0 96 96" fill="none" xmlns="http://www.w3.org/2000/svg">
<path d="M6 35.8667C6 25.4124 6 20.1852 8.03455 16.1922C9.82418 12.6798 12.6798 9.82418 16.1922 8.03455C20.1852 6 25.4124 6 35.8667 6H60.1333C70.5876 6 75.8148 6 79.8078 8.03455C83.3202 9.82418 86.1758 12.6798 87.9655 16.1922C90 20.1852 90 25.4124 90 35.8667V60.1333C90 70.5876 90 75.8148 87.9655 79.8078C86.1758 83.3202 83.3202 86.1758 79.8078 87.9655C75.8148 90 70.5876 90 60.1333 90H35.8667C25.4124 90 20.1852 90 16.1922 87.9655C12.6798 86.1758 9.82418 83.3202 8.03455 79.8078C6 75.8148 6 70.5876 6 60.1333V35.8667Z" fill="white"/>
<path d="M73.4776 18H63.7237V32.1337H77.9961V21.9854C78 21.9854 77.2908 18.3854 73.4776 18Z" fill="#1967D2"/>
<path d="M63.7275 77.9344V77.9691V78L78 63.8662H77.8721L63.7275 77.9344Z" fill="#1967D2"/>
<path d="M77.9988 63.866V63.7393L77.8721 63.866H77.9988Z" fill="#FBBC05"/>
<path d="M78 32.1338H63.7275V63.7391H78V32.1338Z" fill="#FBBC05"/>
<path d="M77.8721 63.8662H63.7275V77.9344L77.8721 63.8662Z" fill="#EA4335"/>
<path d="M63.7275 63.866H77.8721L78 63.7393H63.7275V63.866Z" fill="#EA4335"/>
<path d="M63.6927 77.9691H63.7272V77.9346L63.6927 77.9691Z" fill="#34A853"/>
<path d="M31.9508 63.7393V77.9694H63.6927L63.7276 63.7393H31.9508Z" fill="#34A853"/>
<path d="M63.7272 63.8664V63.7393L63.6927 77.9694L63.7272 77.9347V63.8664Z" fill="#34A853"/>
<path d="M18 63.7393V73.6333C18.1279 76.8439 21.6001 77.9694 21.6001 77.9694H31.9508V63.7393H18Z" fill="#188038"/>
<path d="M31.9508 32.1337H63.7276V18H22.0031C22.0031 18 18.2558 18.3854 18 22.3669V63.7391H31.9508V32.1337Z" fill="#4285F4"/>
<path d="M42.3468 57.3414C41.6198 57.3414 40.9187 57.2468 40.2437 57.0574C39.5859 56.868 38.9801 56.5839 38.4262 56.2052C37.8723 55.8092 37.379 55.3186 36.9463 54.7332C36.5308 54.1479 36.2106 53.4679 35.9856 52.6931L39.1792 51.4278C39.4042 52.2886 39.785 52.9428 40.3216 53.3904C40.8582 53.8208 41.5332 54.036 42.3468 54.036C42.7103 54.036 43.0564 53.9843 43.3853 53.881C43.7142 53.7605 43.9998 53.597 44.2421 53.3904C44.4845 53.1838 44.6749 52.9428 44.8133 52.6673C44.9691 52.3747 45.047 52.0476 45.047 51.686C45.047 50.9285 44.7614 50.3346 44.1902 49.9042C43.6363 49.4738 42.866 49.2586 41.8794 49.2586H40.3475V46.1855H41.7496C42.0958 46.1855 42.4333 46.1425 42.7622 46.0564C43.0911 45.9703 43.3767 45.8412 43.619 45.6691C43.8786 45.4797 44.0777 45.2473 44.2162 44.9718C44.372 44.6791 44.4498 44.3434 44.4498 43.9647C44.4498 43.3793 44.2421 42.9059 43.8267 42.5444C43.4113 42.1656 42.8487 41.9762 42.1391 41.9762C41.3774 41.9762 40.7889 42.1828 40.3735 42.596C39.9754 42.992 39.6984 43.4396 39.5427 43.9389L36.427 42.6735C36.5828 42.2431 36.8164 41.8041 37.128 41.3565C37.4396 40.8916 37.829 40.4785 38.2964 40.1169C38.781 39.7382 39.3436 39.4369 39.984 39.2131C40.6245 38.9721 41.3601 38.8516 42.191 38.8516C43.0391 38.8516 43.8094 38.9721 44.5018 39.2131C45.2115 39.4541 45.8173 39.7898 46.3193 40.2202C46.8212 40.6334 47.2107 41.1327 47.4876 41.718C47.7646 42.2861 47.9031 42.9059 47.9031 43.5773C47.9031 44.0938 47.8338 44.5586 47.6953 44.9718C47.5742 45.385 47.4097 45.7551 47.202 46.0822C46.9943 46.4093 46.752 46.6934 46.475 46.9344C46.2154 47.1582 45.9471 47.339 45.6702 47.4767V47.6833C46.501 48.0104 47.1847 48.5355 47.7213 49.2586C48.2752 49.9816 48.5522 50.8941 48.5522 51.9959C48.5522 52.7706 48.405 53.4851 48.1108 54.1393C47.8165 54.7763 47.3924 55.3358 46.8385 55.8178C46.3019 56.2999 45.6528 56.67 44.8912 56.9283C44.1296 57.2037 43.2815 57.3414 42.3468 57.3414Z" fill="#4285F4"/>
<path d="M54.7525 56.9283V43.2416L51.6108 44.5586L50.3646 41.6922L55.5833 39.2647H58.1537V56.9283H54.7525Z" fill="#4285F4"/>
</svg>
