<svg width="96" height="96" viewBox="0 0 96 96" fill="none" xmlns="http://www.w3.org/2000/svg">
<path fill-rule="evenodd" clip-rule="evenodd" d="M48 93C71.196 93 90 74.196 90 51C90 27.804 71.196 9 48 9C24.804 9 6 27.804 6 51C6 58.5326 7.98299 65.6021 11.4554 71.7149L6 93L27.9446 87.9114C33.9041 91.1563 40.7368 93 48 93ZM48 86.5385C67.6273 86.5385 83.5385 70.6273 83.5385 51C83.5385 31.3726 67.6273 15.4615 48 15.4615C28.3726 15.4615 12.4615 31.3726 12.4615 51C12.4615 58.5782 14.8335 65.6024 18.8755 71.3707L15.6923 83.3077L27.8398 80.2708C33.5681 84.2237 40.5137 86.5385 48 86.5385Z" fill="#BFC8D0"/>
<path d="M84 48C84 67.8823 67.8823 84 48 84C40.4165 84 33.3807 81.6552 27.578 77.651L15.2727 80.7273L18.4973 68.6352C14.4028 62.792 12 55.6766 12 48C12 28.1177 28.1177 12 48 12C67.8823 12 84 28.1177 84 48Z" fill="url(#paint0_linear_24_8271)"/>
<path fill-rule="evenodd" clip-rule="evenodd" d="M48 90C71.196 90 90 71.196 90 48C90 24.804 71.196 6 48 6C24.804 6 6 24.804 6 48C6 55.5326 7.98299 62.6021 11.4554 68.7149L6 90L27.9446 84.9114C33.9041 88.1563 40.7368 90 48 90ZM48 83.5385C67.6273 83.5385 83.5385 67.6273 83.5385 48C83.5385 28.3726 67.6273 12.4615 48 12.4615C28.3726 12.4615 12.4615 28.3726 12.4615 48C12.4615 55.5782 14.8335 62.6024 18.8755 68.3707L15.6923 80.3077L27.8398 77.2708C33.5681 81.2237 40.5137 83.5385 48 83.5385Z" fill="white"/>
<path d="M37.5001 28.5001C36.5015 26.4944 34.9696 26.672 33.422 26.672C30.6563 26.672 26.3437 29.9848 26.3438 36.1504C26.3438 41.2033 28.5703 46.7346 36.0733 55.0088C43.3141 62.9941 52.8282 67.1249 60.7266 66.9843C68.625 66.8437 70.2501 60.0468 70.2501 57.7514C70.2501 56.7341 69.6187 56.2265 69.1838 56.0885C66.4922 54.7968 61.528 52.3899 60.3985 51.9377C59.2689 51.4855 58.6792 52.0971 58.3125 52.4299C57.2882 53.406 55.2578 56.2828 54.5625 56.9299C53.8673 57.5769 52.8308 57.2495 52.3995 57.0049C50.8123 56.3679 46.5088 54.4537 43.0784 51.1284C38.836 47.0158 38.587 45.6009 37.7877 44.3414C37.1483 43.3338 37.6175 42.7156 37.8516 42.4455C38.7657 41.3908 40.0278 39.7625 40.5938 38.9533C41.1598 38.1441 40.7105 36.9155 40.4409 36.1504C39.2813 32.8595 38.2989 30.1047 37.5001 28.5001Z" fill="white"/>
<defs>
<linearGradient id="paint0_linear_24_8271" x1="79.5" y1="21" x2="12" y2="84" gradientUnits="userSpaceOnUse">
<stop stop-color="#5BD066"/>
<stop offset="1" stop-color="#27B43E"/>
</linearGradient>
</defs>
</svg>
